HIERARCHY
ROOT hip
{
  OFFSET 0.0 0.0 0.0
  CHANNELS 6 Xposition Yposition Zposition Zrotation Yrotation Xrotation
  JOINT torso
  {
    OFFSET 0.0 0.0 0.0
    CHANNELS 3 Zrotation Xrotation Yrotation
    JOINT neck
    {
      OFFSET -8.059630999999968 325.56260699999996 64.6221310000002
      CHANNELS 3 Zrotation Xrotation Yrotation
      JOINT head
      {
        OFFSET 34.685424000000125 375.1179809999999 232.79357900000002
        CHANNELS 3 Zrotation Xrotation Yrotation
        End Site
        {
          OFFSET 0.0 0.0 0.0
        }
      }
    }
    JOINT left_collar
    {
      OFFSET -8.059630999999968 325.56260699999996 64.6221310000002
      CHANNELS 3 Zrotation Xrotation Yrotation
      JOINT left_upper_arm
      {
        OFFSET -124.124665 -15.370300999999927 25.582641999999964
        CHANNELS 3 Zrotation Xrotation Yrotation
        JOINT left_forearm
        {
          OFFSET -268.19913399999996 105.06054699999993 114.74548300000004
          CHANNELS 3 Zrotation Xrotation Yrotation
          JOINT left_hand
          {
            OFFSET -235.82003099999991 -10.198180999999977 -38.67455999999993
            CHANNELS 3 Zrotation Xrotation Yrotation
            End Site
            {
              OFFSET 0.0 0.0 0.0
            }
          }
        }
      }
    }
    JOINT right_collar
    {
      OFFSET -8.059630999999968 325.56260699999996 64.6221310000002
      CHANNELS 3 Zrotation Xrotation Yrotation
      JOINT right_upper_arm
      {
        OFFSET 162.73931899999997 -2.8598030000000563 26.244994999999903
        CHANNELS 3 Zrotation Xrotation Yrotation
        JOINT right_forearm
        {
          OFFSET 284.6506340000001 103.07031299999994 145.84521499999994
          CHANNELS 3 Zrotation Xrotation Yrotation
          JOINT right_hand
          {
            OFFSET 226.332337 -12.198241999999937 -49.27258299999994
            CHANNELS 3 Zrotation Xrotation Yrotation
            End Site
            {
              OFFSET 0.0 0.0 0.0
            }
          }
        }
      }
    }
  }
}
MOTION
Frames: 19
Frame Time: 0.01
817.2582093355687 181.8815498528871 1439.0829877855028 -2.937027435822937 -9.796959346105211 -3.9500432797681664 0.2477301332026698 0.42128510941971076 -0.037862458531128185 -1.2984726416624974 5.38452646948018 0.2542250551357266 0.0 0.0 0.0 1.2191316044251304 0.22096902095191776 0.22688894812315635 6.6922038635488645 2.269159459402569 -1.6779023093103422 -62.32985162567353 -15.225094620358117 -47.30292583797199 0.0 0.0 0.0 0.2250693057447903 -0.02869041659025712 0.4885242756256555 -4.635710107856479 3.8903090285584043 -5.165079748524498 44.94009665726084 -6.549812087097143 46.3179030376495 0.0 0.0 0.0
816.7496122407272 181.73729243343675 1438.8392552137443 -2.9597478684769127 -9.776164513105108 -3.8705410079732636 0.21040304248084366 0.46191570217592864 -0.02950529037606638 -1.257166758897644 5.388683000833729 0.22934516337319438 0.0 0.0 0.0 1.2031450745864791 0.22478736664012916 0.17432334730895332 6.469560011120563 2.111520848660473 -1.8706051128751497 -62.56033750507587 -15.130789742132503 -47.008864258214714 0.0 0.0 0.0 0.21502498104070422 -0.028146675207149512 0.41703927128148993 -4.671193340109403 3.931177470126764 -5.251478706167845 44.84154005182663 -6.545809122947782 46.3652567930947 0.0 0.0 0.0
816.120197715187 181.61380656752573 1438.5450785985722 -2.969717640682212 -9.753822491607957 -3.7996984645138028 0.17093292070679303 0.5100126319567914 -0.02056132158357818 -1.2173834045697038 5.389739264585338 0.20569652706197586 0.0 0.0 0.0 1.1909003617455984 0.22768131916435125 0.13421811808516848 6.246658226428376 1.9545556919476745 -2.0572291241741048 -62.780282785816865 -15.03054545068335 -46.7125708872896 0.0 0.0 0.0 0.20720953452442228 -0.027775877488489597 0.35864967265831305 -4.705272111619301 3.9699478533199097 -5.3331031019253965 44.752282555404115 -6.540527038402842 46.40379379034482 0.0 0.0 0.0
815.3707292732248 181.51107319199312 1438.2006200369667 -2.9673416263099543 -9.72952178303154 -3.738315367851244 0.12986042328530903 0.5650212597901461 -0.011159625465172384 -1.1798432338706928 5.387345394235942 0.18373990447536848 0.0 0.0 0.0 1.1823396755663715 0.22960217433494454 0.10690308400054112 6.023890240404963 1.7988818086537304 -2.2365582685085417 -62.98759388910498 -14.925005975376399 -46.4161831529488 0.0 0.0 0.0 0.20170186429233822 -0.02757263661438302 0.3141274749441929 -4.73739548040051 4.006098343021826 -5.408943484867258 44.67461432257561 -6.533827377358354 46.43168513422438 0.0 0.0 0.0
814.5014788405621 181.42827124590522 1437.8062338373006 -2.953105008397743 -9.702680147606305 -3.6868734802915326 0.08777602420632125 0.6261848988363548 -0.0014429348786058746 -1.1451661246597613 5.381215176378466 0.16386957579974984 0.0 0.0 0.0 1.177317180506474 0.2305312287877929 0.09233348424408636 5.801535329436845 1.6451011711942634 -2.4073319546751173 -63.18050048565526 -14.814863768226 -46.12167409633385 0.0 0.0 0.0 0.19848278948307935 -0.027522625681028604 0.2838808616427722 -4.767022752472352 4.0391455647822205 -5.478095865203672 44.61052288761016 -6.525650476254567 46.44749569871191 0.0 0.0 0.0
813.512215403472 181.36383496116179 1437.3624416987652 -2.927565694726601 -9.672559590228154 -3.645553794953107 0.045309554942567 0.6925648804331511 0.008435735658036703 -1.1138669427493622 5.371124616906481 0.14641124585193027 0.0 0.0 0.0 1.1756100307029376 0.23047846450190032 0.09011620931906572 5.57977161377376 1.4937984341185535 -2.568260891910997 -63.3575840947098 -14.700837536678938 -45.83081364211358 0.0 0.0 0.0 0.19744213446076617 -0.02760382909148442 0.2679696644776258 -4.7936323076684495 4.068650294580068 -5.539771888791199 44.5616395183208 -6.5160082324346105 46.45021087718717 0.0 0.0 0.0
812.4021764868359 181.31553724448437 1436.8699045686215 -2.89134533141354 -9.638289615792893 -3.6142610637456163 0.003117068291746625 0.763069119848429 0.018317087765234007 -1.086354704528899 5.356907504057811 0.13162223910095375 0.0 0.0 0.0 1.1769318769974495 0.22948051069801725 0.09954729125077423 5.35869034334006 1.345538562750891 -2.718049162718875 -63.5177935195728 -14.583650086940807 -45.54513851795243 0.0 0.0 0.0 0.19838963253633637 -0.02778797090973565 0.26613055866153784 -4.816732052688679 4.094222940167094 -5.593306198916664 44.529195389958225 -6.504974720593149 46.439249363406255 0.0 0.0 0.0
811.1700245027318 181.28059641347855 1436.329393248155 -2.845119293746685 -9.598897219282074 -3.592653591267346 -0.03813439236815757 0.8364873357832702 0.02803991564429731 -1.0629346392919419 5.338448714930979 0.11969359848780944 0.0 0.0 0.0 1.180947951286842 0.2275979560344973 0.1196581806966359 5.138312817804847 1.2008636117556142 -2.855421780517694 -63.660447350448244 -14.464007055575328 -45.26593124410922 0.0 0.0 0.0 0.20106883138045342 -0.028042057361409484 0.2778099632832651 -4.835871127454999 4.115528749313569 -5.6381610941528715 44.513989222779045 -6.492675581433571 46.41446208239118 0.0 0.0 0.0
809.8137911867024 181.25580261845155 1435.741760066666 -2.7896061653422497 -9.55334167041146 -3.5801762026140946 -0.07778336372554648 0.9115306556161976 0.037445594555777055 -1.0438125702685737 5.315676089542501 0.11075364979727308 0.0 0.0 0.0 1.1872908180977464 0.22491209634080214 0.14926812208719478 4.9186094781181975 1.0602887699152093 -2.979156631318655 -63.78522421668495 -14.342577423525725 -44.99420815908508 0.0 0.0 0.0 0.20517305437328925 -0.028329980635953936 0.30220249633135426 -4.850652345563743 4.132292640284831 -5.6739286536064215 44.51636763284993 -6.479277030364217 46.376117896381054 0.0 0.0 0.0
808.3308143986538 181.23765949647645 1435.1079139912747 -2.725557287388886 -9.500551942639678 -3.576094425178401 -0.11519100516876253 0.9868731367058801 0.04638241587401375 -1.0291010243460452 5.28855170279737 0.10487259423276561 0.0 0.0 0.0 1.1955759235677055 0.2215212168513332 0.18703989925021802 4.699520597691644 0.9242978366932787 -3.0881194297400665 -63.89214187425683 -14.219976514390956 -44.73071609310037 0.0 0.0 0.0 0.21036241981483414 -0.028614137014136672 0.33829288401647173 -4.860744741948633 4.144303523240787 -5.700330566720005 44.53621896741485 -6.464975180869043 46.32487715166244 0.0 0.0 0.0
806.7176724086838 181.22253599655065 1434.4288014128817 -2.6537469303168892 -9.439464666714288 -3.5795281805215984 -0.14975773482150648 1.0611927936476935 0.05470953557387492 -1.0188265250712807 5.257063310496084 0.10206772928783468 0.0 0.0 0.0 1.2054161635211758 0.21753652328668913 0.2315363410612578 4.48097789292605 0.7933383272714888 -3.181300113881152 -63.981526536002015 -14.096751986625838 -44.475937049821994 0.0 0.0 0.0 0.216280928114257 -0.028857012108341323 0.3848994092182716 -4.865895517403947 4.151417957513851 -5.717215960822757 44.57298090289677 -6.449986175803494 46.26175447255339 0.0 0.0 0.0
804.9701213261134 181.20682293109115 1433.7053945162413 -2.574963514782123 -9.369060731795571 -3.5894836113025703 -0.18093867832843913 1.1332100198386224 0.06230036178151009 -1.0129375913008563 5.221216638733945 0.10230895281504246 0.0 0.0 0.0 1.2164348358850827 0.21307785547833819 0.28127520443191056 4.2629262633113765 0.6678164119314981 -3.2578489696208317 -64.0539740507663 -13.973373139871494 -44.23010010056947 0.0 0.0 0.0 0.2225726871227094 -0.029022681141635257 0.4407172478521031 -4.865940607106163 4.153562964998277 -5.724557558419456 44.625661610767196 -6.43453739929655 46.1880724359385 0.0 0.0 0.0
803.0830415296682 181.1870886804028 1432.9386886058421 -2.4900021340566294 -9.28839902532752 -3.6048820189815394 -0.20825731638565403 1.2017217425625621 0.0690452775952188 -1.0113130347925925 5.1810290412350835 0.105524264034958 0.0 0.0 0.0 1.2282765279688665 0.20826933894920596 0.3347803528268501 4.045344772317889 0.5480918835067946 -3.317110726916784 -64.11030461144468 -13.850223674082518 -43.99319961260095 0.0 0.0 0.0 0.22889645778744797 -0.02907816691153145 0.5043603344290158 -4.860813082732414 4.150737804417236 -5.72244651689724 44.6928738404254 -6.418859831905997 46.105407895785206 0.0 0.0 0.0
801.0503988534441 181.16022859799187 1432.1297091114243 -2.3996584543632586 -9.196646208736784 -3.6245852311750744 -0.23131690113393635 1.265630152499399 0.07485366212405355 -1.01377022042078 5.136524890940382 0.11160503361416466 0.0 0.0 0.0 1.2406156867636264 0.20323514635883982 0.39062750257374784 3.828265919753068 0.4344733219128332 -3.3586549212788035 -64.15151266913846 -13.72759787064719 -43.76501888164573 0.0 0.0 0.0 0.23493786424987184 -0.028994596606108723 0.5744006879599075 -4.850548659883974 4.143014519578841 -5.711086302505769 44.7728808151346 -6.403181442256082 46.01553281715321 0.0 0.0 0.0
798.8652259415516 181.12360299858713 1431.27952836907 -2.304723916079334 -9.09310182627231 -3.6474170466735387 -0.24980938290660346 1.3239653375686653 0.07965522678193539 -1.020073028205429 5.087732926127032 0.12041087398068133 0.0 0.0 0.0 1.253162792227093 0.19809554210587638 0.4474832079187845 3.6117922660576744 0.3272136002474241 -3.382300968557778 -64.17871371147432 -13.605700007927393 -43.54515817356326 0.0 0.0 0.0 0.24041880978253333 -0.028748102824072627 0.6494044022155046 -4.835287731927828 4.130537109551149 -5.690785921907839 44.863652390591724 -6.387721404047278 45.92035156167963 0.0 0.0 0.0
796.5196286581111 181.0751591057853 1430.3892917572996 -2.205982033143811 -8.977218430351662 -3.6721807222286817 -0.26352173604465473 1.3759016063228446 0.08340072272563565 -1.029939342189021 5.034685652738564 0.13177400272722015 0.0 0.0 0.0 1.265668175560982 0.19296336420870014 0.5041361893826581 3.396109562283616 0.22650586027386857 -3.388136654611426 -64.19308955853221 -13.484646679407064 -43.33306607802648 0.0 0.0 0.0 0.2451038486672615 -0.028320423528191956 0.7279637557006717 -4.81527355729258 4.113519218641133 -5.661952778928357 44.96292951229995 -6.372684898034704 45.82183664715507 0.0 0.0 0.0
794.0048217621579 181.01353294399215 1429.4602523878086 -2.1042054962341887 -8.848616762221056 -3.6976727619299106 -0.2723396894536955 1.4207676901808803 0.08606209870285561 -1.043047984899041 4.977420812697696 0.1455030553629775 0.0 0.0 0.0 1.277923598347965 0.18794106033247793 0.5595205585181985 3.1814957014181444 0.1324800749182726 -3.376529073161301 -64.19583383432577 -13.364471551830897 -43.128072942000365 0.0 0.0 0.0 0.24880346072385942 -0.02769916881002252 0.8087251179689641 -4.7908464462559195 4.092240292137423 -5.625085340178193 45.06829467019932 -6.3582582949066975 45.721965047386675 0.0 0.0 0.0
791.311197244601 180.93812784833267 1428.4938132827438 -2.0001537324640353 -8.707096311225289 -3.722693531577661 -0.2762489530208247 1.4580513335019354 0.08763219767325496 -1.0590451079274859 4.915984848378354 0.1613863649081953 0.0 0.0 0.0 1.2897617537334438 0.18311834789747 0.6127309262974802 2.9683250041585345 0.04520030412099931 -3.348127425510855 -64.18809926203008 -13.245131985882768 -42.92942500199998 0.0 0.0 0.0 0.25137434549831916 -0.026877738309629206 0.8904125014612858 -4.762433999007005 4.067040175950946 -5.580765665166037 45.17724583171613 -6.344604591996108 45.62265704720095 0.0 0.0 0.0
788.4284277756163 180.84916702435243 1427.491575767249 -1.8945705599789888 -8.552641755408683 -3.74605542773075 -0.2753340911223228 1.4873989913980923 0.08812407855781249 -1.0775501282929716 4.850438211276021 0.17919478033287511 0.0 0.0 0.0 1.301053888179196 0.1785705206491131 0.6630297736286515 2.7570675518626433 -0.03533727083525578 -3.303857495645484 -64.17094838458442 -13.126516849579398 -42.736317700613384 0.0 0.0 0.0 0.2527169928227267 -0.025854891560535255 0.9718467101624837 -4.730537637413411 4.038312147560824 -5.529651657958771 45.287271275990854 -6.331859066900332 45.525719477335294 0.0 0.0 0.0
